<svg width="512" height="512" viewBox="0 0 512 512" fill="none" xmlns="http://www.w3.org/2000/svg">
<g clip-path="url(#clip0_1074_382)">
<path d="M0 245.742C0 129.938 0 72.0356 36.0178 36.0178C72.0356 0 129.938 0 245.742 0H266.258C382.062 0 439.964 0 475.982 36.0178C512 72.0356 512 129.938 512 245.742V266.258C512 382.062 512 439.964 475.982 475.982C439.964 512 382.062 512 266.258 512H245.742C129.938 512 72.0356 512 36.0178 475.982C0 439.964 0 382.062 0 266.258V245.742Z" fill="#FF7700"/>
<path d="M256 254.632C281.075 254.632 303.644 244.602 320.057 228.189C336.47 211.776 346.5 188.98 346.5 164.132C346.5 139.056 336.47 116.488 320.057 100.075C303.644 83.6619 281.075 73.6316 256 73.6316C230.924 73.6316 208.356 83.6619 191.943 100.075C175.53 116.488 165.499 139.056 165.499 164.132C165.499 189.208 175.53 211.776 191.943 228.189C208.356 244.374 230.924 254.632 256 254.632ZM227.049 134.953C234.571 127.43 244.83 122.871 256 122.871C267.398 122.871 277.656 127.43 284.951 134.953C292.473 142.476 297.033 152.734 297.033 163.904C297.033 175.074 292.473 185.56 284.951 192.855C277.428 200.378 267.17 204.937 256 204.937C244.602 204.937 234.343 200.378 227.049 192.855C219.526 185.332 214.967 175.074 214.967 163.904C214.967 152.734 219.526 142.476 227.049 134.953Z" fill="white"/>
<path d="M377.731 291.106L351.06 254.86C349.464 252.809 346.728 252.581 344.677 254.176C319.601 275.605 288.826 289.282 255.772 289.282C222.718 289.282 191.943 275.377 166.867 254.176C165.044 252.581 162.08 252.809 160.484 254.86L134.041 291.106C132.673 292.93 133.129 295.437 134.725 296.805C157.065 315.042 183.052 327.124 210.18 333.507L154.101 432.214C152.734 434.949 154.785 438.369 157.977 438.369H212.915C214.511 438.369 216.107 437.457 216.791 435.861L256 348.324L295.209 435.861C295.893 437.457 297.489 438.369 299.084 438.369H354.023C357.214 438.369 359.266 434.949 357.67 432.214L301.592 333.507C328.719 327.124 354.479 315.042 376.819 296.805C378.643 295.437 378.871 292.93 377.731 291.106Z" fill="white"/>
</g>
<defs>
<clipPath id="clip0_1074_382">
<rect width="512" height="512" fill="white"/>
</clipPath>
</defs>
</svg>
