<svg xmlns="http://www.w3.org/2000/svg" width="416" height="299" fill="none"><path d="M395.9 120.4v-6.7c0-26-21-47.8-48.1-47.8h-10.9C308 24.1 259.9 0 208.1 0c-51.8 0-99.9 24.1-128.8 65.9H68.5c-27.1 0-48.4 21.8-48.4 47.8v6.7C5.4 129.1 0 138.8 0 149.3s5.4 20.2 20.1 28.9v6.7c0 26 21.3 48.1 48.4 48.1h10.9c28.9 39.3 77 65.9 128.8 65.9 51.8 0 99.9-26.6 128.7-65.9h10.9c27.1 0 48.1-22.1 48.1-48.1v-6.7c14.7-8.7 20.1-18.4 20.1-28.9s-5.4-20.2-20.1-28.9Z" fill="#663334"/><path d="M40 125.5c1.3-2.8 10.6-6.3 14.5-6.3l6.3 16 7.8-16.2c3.9-.3 10 4 11.5 6.1l-12.9 18.3 13.2 20.7c-2.3 2.6-10 5.1-15 4.6l-7.8-15.8-7.7 16c-2.8 0-11.3-2.8-11.9-4.9l13.2-19.6L40 125.5Zm44.7 31.4c4.1 1.1 6.9-2.4 8.1-14.6l-3.8.5c-1.2-1.2-1.8-7.7.2-9.6h18.9c11.5 0 14 3.6 13.7 11.8l-.4 10.2c-.1 3.3.6 3.8 3.2 3.2.7 1 .9 4.2.2 5.9-1.5 1.8-3.4 3.4-8.2 3.4-5.1 0-8-2.6-7.7-8.4l.5-12.6c.1-2.8-.8-4.5-2.8-4.7l-3.9-.3c-.9 19.5-4.9 25.8-12.5 25.8-3.2 0-5.3-.7-7-1.8-.8-.9.1-7.4 1.5-8.8Zm65.3 1.9c3.4 0 7.6-1 10.6-3.2 1.7.8 2.6 4.9 1.6 7.5-3.8 3.2-10.5 4.9-16.8 4.6-10-.4-17.5-5.7-17.5-17.3 0-11.1 7.8-17.9 19.9-17.9 11.6 0 16.2 4.7 16.2 11 0 9.6-11.6 12-22.6 8.8-.1 4.3 3.2 6.5 8.6 6.5Zm.9-15.8c0-2.2-1-4-3.4-4-4.7 0-6.1 4.4-6.3 8.8 4.1.5 9.7-.3 9.7-4.8Zm50.7-20.9c-1.3 17.4-19.5 2.2-21.2 19.9 2.6-4.2 6.3-6.6 11.1-6.6 8.2 0 13.9 5.2 13.9 14.7 0 12.3-8 18-18.6 18-12.1 0-18.6-5.7-18.6-19.9 0-33.8 25.5-24.2 29.9-29.7 1.4.4 3.2 1.8 3.5 3.6Zm-20.7 24.7c-.3 10.6 1.3 13.7 5.7 13.7 3.6 0 5.6-3.6 5.6-9.6 0-5-1.9-6.9-4.4-6.9-2.7-.1-4.9 1-6.9 2.8Zm42.9-13.6-1 12.5h10.4c0-4.4-.1-7.9.3-12.2 2-1.6 11.5-1.3 12.9-.2-.9 7-1.1 14.5-1.1 19.7 0 5.1.5 6.2 3.5 5.4.9.7 1.1 4.4.3 6.1-1.3 1.9-4.4 3.2-7.3 3.2-7.6 0-9.4-4-8.6-14.2l-10.3.4.5 12.9c-1.3 1.1-11.7 1.4-13 0l.5-33.4c2.1-1.2 10.4-1.2 12.9-.2Zm42.7 16.7c-.4 6 .2 9 4.2 9 1.7 0 3.6-1 4.9-2.8-.1-7.5.5-15.4 1.3-23.1 2.9-1.3 10.1-.8 11.9 0-.9 7.8-1.4 14.7-1.1 21.1.3 3.7.5 5.1 3.2 4.5 1 1.2.7 4.8-.2 6.4-1.2 1.3-3.4 2.6-6.6 2.6-3.6 0-6.9-.9-7.8-6.2-2.4 3.4-5.5 6.1-11 6.1-7.6 0-11.9-4.2-11.5-14.7l.9-19.2c2.8-1.3 10.4-1.7 13-.7l-1.2 17Zm42 .6c-.4 5.5.3 8.2 3.8 8.2 2.2 0 4.4-1.1 5.7-2.8-.1-7.5.5-15.1 1.3-22.8 2.5-.9 9.6-.9 12.2 0-.9 7.7-1.2 13.7-1.1 20.6 0 3.2.5 5.5 4.4 4.5.8.1.9 2.1.7 3.2-1.5 4.2-2.5 10.5-2.6 17.1-1.8 1.3-9.1 1-10.8-1.3-.5-3.1.9-7.8 3.9-10.5-3.2 1.1-6.7.1-7-5.1-2.8 3.3-5.6 6.1-11.3 6.1-9 0-12.2-5.7-11.9-13.4l.9-20.5c2.8-1.1 9.8-1.5 12.9-.7l-1.1 17.4Zm64.9 3.9c0 3.7.9 4.5 3.2 4.2 1 .9.9 5.5-.3 6.9-1.2 1-3.1 2.2-6.9 2.2-3.8 0-6.9-2.2-7.5-5.5-2 3.4-4.2 5.9-9.6 5.9-7 0-13.8-4.9-13.8-16.7 0-12.1 6.6-18.9 14.4-18.9 4.8 0 7.9 2.2 9.6 5l1.1-4.5c.9-.5 9.9-.3 10.6.5-.6 11.2-.8 17.4-.8 20.9Zm-16.2-13.1c-3.4 0-5.5 3.7-5.5 10.1 0 5.7 1.9 8 4.9 8 1.8 0 3.4-1.1 4.4-2.4l.7-14c-1-1-2.8-1.7-4.5-1.7ZM207.5 270.2c.9 1.2 1.3 2.4 1.2 3.4-.1.8-.4 1.5-.8 2-.9-1.2-1.3-2.4-1.2-3.4 0-.8.4-1.5.8-2Z" fill="#FEF1E6"/><path d="M207.6 267.5s-6.4 4.3.1 10.8v-.1.1s6.5-4.2-.1-10.8Zm31.3-1.4c1.2.9 1.9 1.9 2 3 .1.8 0 1.6-.3 2.2-1.2-.9-1.9-1.9-2-3-.2-.8 0-1.6.3-2.2Z" fill="#FEF1E6"/><path d="M238.3 263.5s-5.1 5.8 2.9 10.4v-.1.1s5.1-5.7-2.9-10.4c0 .1 0 0 0 0Zm-94.1-224c1.4.6 2.3 1.4 2.8 2.4.3.7.4 1.5.3 2.2-1.4-.6-2.3-1.4-2.8-2.4-.3-.8-.4-1.6-.3-2.2" fill="#FEF1E6"/><path d="M143 37.1s-3.4 6.9 5.5 9.3v-.1.1s3.4-6.9-5.5-9.3Zm125.1 217c1.4.6 2.3 1.4 2.8 2.4.3.7.4 1.5.3 2.2-1.4-.6-2.3-1.4-2.8-2.4-.4-.8-.4-1.6-.3-2.2Z" fill="#FEF1E6"/><path d="M266.9 251.7s-3.4 6.9 5.5 9.3v-.1.1s3.4-6.9-5.5-9.3ZM118 59.6c1.5.2 2.6.8 3.3 1.6.5.6.8 1.4.9 2-1.5-.2-2.6-.8-3.3-1.6-.6-.6-.8-1.3-.9-2Z" fill="#FEF1E6"/><path d="M116.2 57.7s-1.5 7.6 7.8 7.6 1.5-7.6-7.8-7.6Zm177 177.2c1.5.2 2.6.8 3.3 1.6.5.6.8 1.4.9 2-1.5-.2-2.6-.8-3.3-1.6-.6-.6-.8-1.4-.9-2" fill="#FEF1E6"/><path d="M291.4 232.9s-1.5 7.6 7.8 7.6l-.1-.1.1.1s1.5-7.6-7.8-7.6ZM98.8 85.8c2.4 0 3.5 1.3 4 2.5-.3 0-.6.1-.9.1-2.4 0-3.5-1.3-4-2.5.3 0 .6-.1.9-.1Z" fill="#FEF1E6"/><path d="M98.8 84c-.9 0-2 .1-3.2.5 0 0 .4 5.8 6.3 5.8.9 0 2-.1 3.2-.5h-.1.1s-.4-5.8-6.3-5.8Zm214.6 125.7c2.4 0 3.5 1.3 4 2.5-.3 0-.6.1-.9.1-2.4 0-3.5-1.3-4-2.5.3 0 .6-.1.9-.1Z" fill="#FEF1E6"/><path d="M313.4 207.9c-.9 0-2 .1-3.2.5 0 0 .4 5.8 6.3 5.8.9 0 2-.1 3.2-.5h-.1.1s-.4-5.8-6.3-5.8Zm-211.3 1.5h.6c-1.3 3.1-3.3 3.1-4 3.1h-.6c1.3-3 3.3-3.1 4-3.1Z" fill="#FEF1E6"/><path d="M102.1 207.6c-2.2 0-5 1.1-6.4 6.2 0 0 1.3.6 3 .6 2.2 0 5-1.1 6.4-6.2 1.4-5.1-1.4-.6-3-.6ZM316.7 85.5h.6c-1.3 3.1-3.3 3.1-4 3.1h-.6c1.3-3 3.2-3.1 4-3.1Z" fill="#FEF1E6"/><path d="M316.7 83.7c-2.2 0-5 1.1-6.4 6.2 0 0 1.3.6 3 .6 2.2 0 5-1.1 6.4-6.2h-.1.1s-1.4-.6-3-.6ZM121.9 234.6c-.4 2.5-1.6 3.9-3.6 4.1.2-1.5.8-2.6 1.6-3.3.6-.5 1.3-.7 2-.8" fill="#FEF1E6"/><path d="M122.7 232.7c-2.1 0-6.4.9-6.4 7.9s.5.1 1.2.1c2.1 0 6.4-.9 6.4-7.9l-.1.1.1-.1s-.5-.1-1.2-.1ZM297.1 59.4c-.4 2.5-1.6 3.9-3.6 4.1.2-1.5.8-2.6 1.6-3.3.6-.5 1.3-.7 2-.8" fill="#FEF1E6"/><path d="M297.9 57.5c-2.1 0-6.4.9-6.4 7.9s.5.1 1.2.1c2.1 0 6.4-.9 6.4-7.9l-.1.1.1-.1s-.5-.1-1.2-.1Zm-151 196.4c.2 1.5-.1 2.7-.7 3.6-.5.7-1.1 1.1-1.7 1.4-.2-1.5.1-2.7.7-3.6.5-.7 1.1-1.2 1.7-1.4Z" fill="#FEF1E6"/><path d="M148.4 251.6s-7.7.5-5.3 9.5v-.1.1s7.7-.5 5.3-9.5c0 .1 0 .1 0 0 0 .1-.1.1 0 0ZM270.8 39.3c.2 1.5-.1 2.7-.7 3.6-.5.7-1.1 1.1-1.7 1.4-.2-1.5.1-2.7.7-3.6.5-.7 1.1-1.1 1.7-1.4" fill="#FEF1E6"/><path d="M272.3 37s-7.7.5-5.3 9.5v-.1.1s7.7-.5 5.3-9.5c0 .1-.1.1 0 0Zm-96.2 229c.6 1.4.6 2.6.3 3.6-.3.8-.8 1.4-1.3 1.8-.6-1.4-.6-2.6-.3-3.6.3-.8.8-1.4 1.3-1.8Z" fill="#FEF1E6"/><path d="M176.9 263.5s-7.3 2.5-2.7 10.5v-.1.1c.1 0 7.4-2.5 2.7-10.5Zm-31.9-63c0 1.2 0 1.8 1.8 1.3.4.6.5 2.6 0 3.4-.7 1-2.7 1.7-4.5 1.7-2.8 0-4.3-1.3-4.1-5l.3-5.9c.1-2.3-.9-2.9-2.3-2.9-1.1 0-2.1.6-2.9 1.5l-.1 11.9c-1 .4-6.2.6-7.1 0 .3-7.5.9-11.9.3-18.3.7-.8 6-.9 6.8-.4l.3 3.4c1.4-2.6 4.5-3.6 6.7-3.6 4.3 0 5.2 2.8 5.2 7l-.4 5.9Zm16.6 1.5c1.8 0 4.2-.6 5.8-1.7.9.4 1.4 2.7.9 4.1-2.1 1.7-5.8 2.7-9.2 2.5-5.5-.2-9.6-3.1-9.6-9.5 0-6.1 4.3-9.8 10.9-9.8 6.4 0 8.9 2.6 8.9 6 0 5.3-6.4 6.6-12.4 4.8-.1 2.4 1.7 3.6 4.7 3.6Zm.5-8.6c0-1.2-.6-2.2-1.8-2.2-2.6 0-3.4 2.4-3.5 4.8 2.2.3 5.3-.2 5.3-2.6Zm10.7 13 .9-17.8c.5-.8 6.3-1.3 7-.8l-.7 7.7 1.8-.4 3.5-7.1c1.4-.5 6.5 0 7.1.7l-5.1 7.9c1.7 4.3 3 5.6 4.2 5.7.4 0 .8-.1 1.1-.3.7.4 1 2.3.6 3.5-1 1.1-2.6 1.7-4.1 1.7-3.7 0-6-2.4-8.1-8.5l-1.4.1v7.5c-.2.6-6 .8-6.8.1Zm42.2-6.8c0 2 .5 2.5 1.8 2.3.6.5.5 3-.2 3.8-.7.6-1.7 1.2-3.8 1.2-2.1 0-3.8-1.2-4.1-3-1.1 1.9-2.3 3.2-5.2 3.2-3.8 0-7.6-2.7-7.6-9.2 0-6.7 3.6-10.4 7.9-10.4 2.6 0 4.3 1.2 5.3 2.7l.6-2.5c.5-.3 5.4-.1 5.8.3-.4 6.3-.5 9.7-.5 11.6Zm-8.9-7.2c-1.8 0-3 2-3 5.5 0 3.1 1 4.4 2.7 4.4 1 0 1.8-.6 2.4-1.3l.4-7.7c-.6-.5-1.6-.9-2.5-.9Zm22-1.7c1.4-1.7 3.1-3.2 6.2-3.2 3.3 0 6.5 2 6.5 8.4 0 9.5-5.9 12.3-13.1 10l-.4 8.8c-1.4.7-5.9.7-7.1.2.5-8.9 1.5-17.8 1-26.8 1.3-.8 5.4-.8 6.8-.4l.1 3Zm-.4 11c4 2 5.6-.8 5.6-5 0-2.7-.7-3.7-2.4-3.7-1.1 0-2.1.6-2.9 1.6l-.3 7.1ZM252 188l-.6 6.8h5.7c0-2.4 0-4.3.2-6.7 1.1-.8 6.3-.7 7.1-.1-.5 3.8-.6 8-.6 10.8 0 2.8.3 3.4 1.9 3 .5.4.6 2.4.1 3.3-.7 1-2.4 1.7-4 1.7-4.2 0-5.2-2.2-4.7-7.8l-5.7.2.3 7.1c-.7.6-6.4.8-7.1 0l.3-18.3c1.2-.6 5.7-.6 7.1 0Zm35.6 12.1c-.1 2 .7 1.9 1.4 1.8.3.6.6 2.5.2 3.3-.8 1-2.1 1.6-3.9 1.6-3.5 0-5-2.8-4.3-8.1l-1.8.6c-1.2 5.2-3.1 7.6-6.4 7.6-1.7 0-3.2-.6-3.7-1.5-.3-.7-.1-2.8.6-3.6 1.9.4 3-.4 4.1-3.4-2.4-.6-4-2.3-4-4.8 0-4 3.9-6 9.4-6 6.3 0 8.8 2.8 8.7 7.1l-.3 5.4Zm-8.9-8.9c-1.3 0-2 .9-2 2.4 0 2.2 1.8 3 4.5 1.9.3-2.9-.4-4.3-2.5-4.3ZM253.6 68.7c-.7-10.8-6-23.5-19.4-27.3-12.6-3.6-22.5-.4-27.6 3.9-5 4.4-7.2 7.7-8 15.8-.8 7.4 2.1 13.4 2.8 14.9-6.2 6.5-12 9.4-18.1 11.1-2.5-2.1-5.8-6.3-6.8-14.8-1.2-10.3 3.8-16.9 11.9-19.6 4.7-1.5 8.3-1.2 10.8-.4.4-.7.8-1.4 1.3-2.3 2-3.4 4.3-5.3 5.5-6.1-3.3-2-8.6-4.1-16.3-3.5-16.5 1.1-25 10.8-27.4 21.8-2.7 12.5 2.4 22.6 6.4 28.3-2.2 1.4-2.4 4.5-.8 6.8 1.9 2.6 8.7 1.8 13 .7 8.5-2.2 15.5-3.9 21.5-9.1 8.3-7.2 12-10.7 13.5-21.9.7-5.3.2-9.1-.4-11.5-1.1.7-5.3 3.7-7.2 8-.2.5-.4.9-.6 1.3 0-.3.1-.6.1-.9 0 0-.3-4.8 3.8-9.1.9-.9 1.7-1.5 2.3-1.8 5-3.1 13.6-3.5 19.7 1.6 7 5.8 8 15.8 4 23.9-1.3 2.7-3.4 5.2-5.5 7.3 1.5.4 4.8 1.2 9.6 1.6 2.3.2 4.2.3 5.7.4 3.1-5 6.6-12.6 6.2-19.1ZM165 66.4c.7-9.1 7.1-18.2 16.2-21.6 7.5-2.8 15.3-2.3 16.3-.1.6 1.4-.6 2.4-5.3 2.8-4.7.4-9.8 1.2-14.8 5-4.5 3.4-16.7 14.6-7 32.4-3.4-4.5-6.1-9.5-5.4-18.5Zm43.6-.3s.6 10.5-10.9 19.1c-7.3 5.4-16.9 8.4-22.5 9.4-.5.1-1 .2-1.5.2h-1.2c-1 .1-1.7 0-2-.1-1-.6-1.3-1.8-.4-2.6l.1-.1s.1-.1.2-.1h.2s.1 0 .1-.1h.2s.1 0 .1-.1h2.8c.2 0 .3 0 .5-.1h.5c.2 0 .4-.1.6-.1.1 0 .3 0 .4-.1 2.5-.4 5.7-1.1 9.1-2l.9-.3c4.2-1.3 8.4-3 11.6-5.3 10.5-8.4 11.2-17.7 11.2-17.7Zm1.5-19.5c-4.8 3.9-11 12.4-6.9 27.5l-.2.2c-4-6.4-4.3-15.1-.3-22.7 2.7-5.1 9.4-9.5 17.5-10.2 8-.7 15.2.9 19.9 4.3-10.6-5.8-24.7-3.3-30 .9Zm23.6 40.7c-10.2-2.5-15.8-7.5-18.8-11.4-.7 1.9-2.2 5.5-5.1 9 3.5 3.5 7.6 6.3 11.9 8.7 0 0-.1 0-.1-.1-3.9 1.6-9.8 3.1-18.2 2.8-2.2-.1-4.4-.5-6.4-1.1-1 .5-2 1-3 1.4-5.4 2.2-10.1 3.5-13 4.2 5.5 3.3 14.7 7 27.6 6.7 15.9-.4 25.4-5 29.5-7.6 5.2.9 8.5-.7 8.9-4.3.4-4.7-5.8-6.5-13.3-8.3Zm9.6 10.5c-1.1 1.5-17.5-2.6-30.1-13.4 0 0 7.8 6.1 18.7 9.1 9.9 2.5 12.6 2.6 11.4 4.3Z" fill="#FEF1E6"/></svg>